<svg width="40" height="40" viewBox="0 0 40 40" fill="none" xmlns="http://www.w3.org/2000/svg">
<path d="M20 10C14.5577 10 10 14.064 10 19.2C10 21.624 11.0454 23.7984 12.6923 25.4248C12.4917 25.9688 12.2074 26.4754 11.8508 26.9248C11.3776 27.5218 10.8548 28.0743 10.2885 28.576C10.1642 28.6796 10.074 28.8208 10.0302 28.9801C9.98646 29.1393 9.99128 29.3088 10.044 29.465C10.0968 29.6213 10.1949 29.7567 10.3248 29.8525C10.4547 29.9483 10.61 29.9999 10.7692 30C12.4731 30 13.6985 29.98 14.8077 29.6752C15.8 29.4016 16.6531 28.8288 17.5238 28.0248C18.3162 28.2224 19.1338 28.4 20 28.4C25.4423 28.4 30 24.336 30 19.2C30 14.064 25.4423 10 20 10ZM20 11.6C24.7115 11.6 28.4615 15.056 28.4615 19.2C28.4615 23.344 24.7115 26.8 20 26.8C19.1623 26.8 18.2923 26.6496 17.5 26.4248C17.3733 26.3917 17.2406 26.3926 17.1143 26.4276C16.9881 26.4626 16.8725 26.5305 16.7785 26.6248C15.9131 27.488 15.2754 27.8904 14.4231 28.1248C14.0308 28.2328 13.2738 28.2072 12.74 28.2504C12.8477 28.124 12.9485 28.0568 13.0531 27.9248C13.6577 27.1568 14.2092 26.3448 14.3754 25.4248C14.3983 25.2867 14.3859 25.1448 14.3394 25.0132C14.293 24.8817 14.2141 24.7651 14.1108 24.6752C12.4992 23.2912 11.5385 21.3512 11.5385 19.2C11.5385 15.056 15.2885 11.6 20 11.6ZM18.5338 14.7248C18.3984 14.7564 18.2738 14.8255 18.1731 14.9248L17.0192 16.0504L18.0531 17.2248L18.9662 16.3248H20.8169L21.5385 17.176V18.3512L19.5669 19.7256C19.4615 19.8002 19.3756 19.9009 19.317 20.0187C19.2583 20.1364 19.2287 20.2674 19.2308 20.4V22H20.7692V20.8496L22.7408 19.4752C22.8463 19.4005 22.9322 19.2997 22.9909 19.1818C23.0496 19.0639 23.0791 18.9327 23.0769 18.8V16.8752C23.0759 16.6818 23.0076 16.4954 22.8846 16.3504L21.7308 15C21.659 14.9141 21.5704 14.8451 21.4709 14.7976C21.3714 14.7502 21.2633 14.7253 21.1538 14.7248H18.7015C18.6458 14.7184 18.5896 14.7184 18.5338 14.7248ZM19.2308 22.8V24.4H20.7692V22.8H19.2308Z" fill="#64748B"/>
</svg>
