<svg width="25" height="25" viewBox="0 0 25 25" fill="none" xmlns="http://www.w3.org/2000/svg">
<g clip-path="url(#clip0_170_820)">
<path fill-rule="evenodd" clip-rule="evenodd" d="M19.2308 2.88462H5.76923C5.00418 2.88462 4.27047 3.18853 3.7295 3.7295C3.18853 4.27047 2.88462 5.00418 2.88462 5.76923V19.2308C2.88462 19.9958 3.18853 20.7295 3.7295 21.2705C4.27047 21.8115 5.00418 22.1154 5.76923 22.1154H19.2308C19.9958 22.1154 20.7295 21.8115 21.2705 21.2705C21.8115 20.7295 22.1154 19.9958 22.1154 19.2308V5.76923C22.1154 5.00418 21.8115 4.27047 21.2705 3.7295C20.7295 3.18853 19.9958 2.88462 19.2308 2.88462ZM5.76923 0C4.23914 0 2.77171 0.607828 1.68977 1.68977C0.607828 2.77171 0 4.23914 0 5.76923V19.2308C0 20.7609 0.607828 22.2283 1.68977 23.3102C2.77171 24.3922 4.23914 25 5.76923 25H19.2308C20.7609 25 22.2283 24.3922 23.3102 23.3102C24.3922 22.2283 25 20.7609 25 19.2308V5.76923C25 4.23914 24.3922 2.77171 23.3102 1.68977C22.2283 0.607828 20.7609 0 19.2308 0H5.76923ZM17.3077 11.5385H7.55769C7.04766 11.5385 6.55852 11.7411 6.19787 12.1017C5.83722 12.4624 5.63461 12.9515 5.63461 13.4615V17.3077C5.63461 17.8177 5.83722 18.3069 6.19787 18.6675C6.55852 19.0282 7.04766 19.2308 7.55769 19.2308H17.3077C17.8177 19.2308 18.3069 19.0282 18.6675 18.6675C19.0282 18.3069 19.2308 17.8177 19.2308 17.3077V13.4615C19.2308 12.9515 19.0282 12.4624 18.6675 12.1017C18.3069 11.7411 17.8177 11.5385 17.3077 11.5385ZM7.07692 5.76923H13.9423C14.3248 5.76923 14.6917 5.92119 14.9622 6.19167C15.2327 6.46216 15.3846 6.82901 15.3846 7.21154C15.3846 7.59406 15.2327 7.96092 14.9622 8.2314C14.6917 8.50189 14.3248 8.65385 13.9423 8.65385H7.07692C6.6944 8.65385 6.32754 8.50189 6.05706 8.2314C5.78657 7.96092 5.63461 7.59406 5.63461 7.21154C5.63461 6.82901 5.78657 6.46216 6.05706 6.19167C6.32754 5.92119 6.6944 5.76923 7.07692 5.76923Z" fill="#44475C"/>
</g>
<defs>
<clipPath id="clip0_170_820">
<rect width="25" height="25" fill="white"/>
</clipPath>
</defs>
</svg>
