<svg width="45" height="44" viewBox="0 0 45 44" fill="none" xmlns="http://www.w3.org/2000/svg">
<path d="M32.732 25.6667C33.2748 25.6667 33.7954 25.4459 34.1792 25.053C34.563 24.6601 34.7786 24.1271 34.7786 23.5714C34.7786 23.0157 34.563 22.4828 34.1792 22.0899C33.7954 21.6969 33.2748 21.4762 32.732 21.4762C32.1892 21.4762 31.6687 21.6969 31.2848 22.0899C30.901 22.4828 30.6854 23.0157 30.6854 23.5714C30.6854 24.1271 30.901 24.6601 31.2848 25.053C31.6687 25.4459 32.1892 25.6667 32.732 25.6667ZM32.732 34.0476C33.2748 34.0476 33.7954 33.8269 34.1792 33.4339C34.563 33.041 34.7786 32.5081 34.7786 31.9524C34.7786 31.3967 34.563 30.8638 34.1792 30.4708C33.7954 30.0779 33.2748 29.8571 32.732 29.8571C32.1892 29.8571 31.6687 30.0779 31.2848 30.4708C30.901 30.8638 30.6854 31.3967 30.6854 31.9524C30.6854 32.5081 30.901 33.041 31.2848 33.4339C31.6687 33.8269 32.1892 34.0476 32.732 34.0476ZM24.5456 23.5714C24.5456 24.1271 24.33 24.6601 23.9461 25.053C23.5623 25.4459 23.0418 25.6667 22.499 25.6667C21.9562 25.6667 21.4356 25.4459 21.0518 25.053C20.668 24.6601 20.4524 24.1271 20.4524 23.5714C20.4524 23.0157 20.668 22.4828 21.0518 22.0899C21.4356 21.6969 21.9562 21.4762 22.499 21.4762C23.0418 21.4762 23.5623 21.6969 23.9461 22.0899C24.33 22.4828 24.5456 23.0157 24.5456 23.5714ZM24.5456 31.9524C24.5456 32.5081 24.33 33.041 23.9461 33.4339C23.5623 33.8269 23.0418 34.0476 22.499 34.0476C21.9562 34.0476 21.4356 33.8269 21.0518 33.4339C20.668 33.041 20.4524 32.5081 20.4524 31.9524C20.4524 31.3967 20.668 30.8638 21.0518 30.4708C21.4356 30.0779 21.9562 29.8571 22.499 29.8571C23.0418 29.8571 23.5623 30.0779 23.9461 30.4708C24.33 30.8638 24.5456 31.3967 24.5456 31.9524ZM12.2659 25.6667C12.8087 25.6667 13.3293 25.4459 13.7131 25.053C14.0969 24.6601 14.3125 24.1271 14.3125 23.5714C14.3125 23.0157 14.0969 22.4828 13.7131 22.0899C13.3293 21.6969 12.8087 21.4762 12.2659 21.4762C11.7231 21.4762 11.2026 21.6969 10.8188 22.0899C10.435 22.4828 10.2193 23.0157 10.2193 23.5714C10.2193 24.1271 10.435 24.6601 10.8188 25.053C11.2026 25.4459 11.7231 25.6667 12.2659 25.6667ZM12.2659 34.0476C12.8087 34.0476 13.3293 33.8269 13.7131 33.4339C14.0969 33.041 14.3125 32.5081 14.3125 31.9524C14.3125 31.3967 14.0969 30.8638 13.7131 30.4708C13.3293 30.0779 12.8087 29.8571 12.2659 29.8571C11.7231 29.8571 11.2026 30.0779 10.8188 30.4708C10.435 30.8638 10.2193 31.3967 10.2193 31.9524C10.2193 32.5081 10.435 33.041 10.8188 33.4339C11.2026 33.8269 11.7231 34.0476 12.2659 34.0476Z" fill="#103757"/>
<path fill-rule="evenodd" clip-rule="evenodd" d="M12.2659 0C12.673 0 13.0635 0.165561 13.3513 0.460261C13.6392 0.754961 13.8009 1.15466 13.8009 1.57143V3.1701C15.1558 3.14286 16.6477 3.14286 18.2891 3.14286H26.7068C28.3502 3.14286 29.8422 3.14286 31.1971 3.1701V1.57143C31.1971 1.15466 31.3588 0.754961 31.6466 0.460261C31.9345 0.165561 32.3249 0 32.732 0C33.1391 0 33.5295 0.165561 33.8174 0.460261C34.1053 0.754961 34.267 1.15466 34.267 1.57143V3.30419C34.7991 3.3461 35.3026 3.39848 35.7794 3.46343C38.178 3.79448 40.1203 4.4901 41.6532 6.05733C43.184 7.62667 43.8635 9.61505 44.1869 12.0707C44.5 14.4592 44.5 17.5078 44.5 21.3589V25.784C44.5 29.635 44.5 32.6857 44.1869 35.0722C43.8635 37.5278 43.184 39.5162 41.6532 41.0855C40.1203 42.6528 38.178 43.3484 35.7794 43.6794C33.4463 44 30.4685 44 26.7068 44H18.2932C14.5315 44 11.5517 44 9.22059 43.6794C6.82197 43.3484 4.87974 42.6528 3.34683 41.0855C1.81597 39.5162 1.13649 37.5278 0.813131 35.0722C0.5 32.6836 0.5 29.635 0.5 25.784V21.3589C0.5 17.5078 0.5 14.4571 0.813131 12.0707C1.13649 9.61505 1.81597 7.62667 3.34683 6.05733C4.87974 4.4901 6.82197 3.79448 9.22059 3.46343C9.69745 3.39848 10.203 3.3461 10.733 3.30419V1.57143C10.733 1.15502 10.8945 0.755641 11.1819 0.461001C11.4693 0.166361 11.8592 0.000555208 12.2659 0ZM9.62582 6.57905C7.56898 6.86191 6.38195 7.3941 5.51623 8.28038C4.65052 9.16667 4.13068 10.3819 3.85439 12.4897C3.80732 12.8459 3.76843 13.223 3.73569 13.619H41.2623C41.2295 13.221 41.1906 12.8459 41.1436 12.4876C40.8673 10.3819 40.3474 9.16667 39.4817 8.28038C38.616 7.3941 37.429 6.86191 35.3701 6.57905C33.2682 6.2899 30.4951 6.28571 26.5922 6.28571H18.4058C14.5029 6.28571 11.7318 6.2899 9.62582 6.57905ZM3.56786 21.4762C3.56786 19.6869 3.56786 18.1301 3.59447 16.7619H41.4035C41.4301 18.1301 41.4301 19.6869 41.4301 21.4762V25.6667C41.4301 29.6623 41.426 32.5013 41.1436 34.6552C40.8673 36.761 40.3474 37.9762 39.4817 38.8625C38.616 39.7488 37.429 40.281 35.3701 40.5638C33.2682 40.853 30.4951 40.8571 26.5922 40.8571H18.4058C14.5029 40.8571 11.7318 40.853 9.62582 40.5638C7.56898 40.281 6.38195 39.7488 5.51623 38.8625C4.65052 37.9762 4.13068 36.761 3.85439 34.6531C3.57196 32.5013 3.56786 29.6623 3.56786 25.6667V21.4762Z" fill="#103757"/>
</svg>
