<svg width="22" height="28" viewBox="0 0 22 28" fill="none" xmlns="http://www.w3.org/2000/svg">
<path fill-rule="evenodd" clip-rule="evenodd" d="M9.81242 3C9.45327 3 9.10883 3.14487 8.85488 3.40273C8.60092 3.66059 8.45825 4.01033 8.45825 4.375C8.45825 4.73967 8.60092 5.08941 8.85488 5.34727C9.10883 5.60513 9.45327 5.75 9.81242 5.75H12.5208C12.8799 5.75 13.2243 5.60513 13.4783 5.34727C13.7322 5.08941 13.8749 4.73967 13.8749 4.375C13.8749 4.01033 13.7322 3.66059 13.4783 3.40273C13.2243 3.14487 12.8799 3 12.5208 3H9.81242ZM6.9398 1.45818C7.70166 0.684597 8.73498 0.25 9.81242 0.25H12.5208C13.5982 0.25 14.6315 0.684597 15.3934 1.45818C15.8259 1.89737 16.1508 2.42538 16.3509 3H17.9374C19.0149 3 20.0482 3.4346 20.81 4.20818C21.5719 4.98177 21.9999 6.03098 21.9999 7.125V23.625C21.9999 24.719 21.5719 25.7682 20.81 26.5418C20.0482 27.3154 19.0149 27.75 17.9374 27.75H4.39575C3.31831 27.75 2.285 27.3154 1.52313 26.5418C0.761264 25.7682 0.333252 24.719 0.333252 23.625V7.125C0.333252 6.03098 0.761264 4.98177 1.52313 4.20818C2.285 3.4346 3.31831 3 4.39575 3H5.98225C6.18235 2.42538 6.50727 1.89737 6.9398 1.45818ZM5.98225 5.75H4.39575C4.0366 5.75 3.69217 5.89487 3.43821 6.15273C3.18426 6.41059 3.04159 6.76033 3.04159 7.125V23.625C3.04159 23.9897 3.18426 24.3394 3.43821 24.5973C3.69217 24.8551 4.03661 25 4.39575 25H17.9374C18.2966 25 18.641 24.8551 18.895 24.5973C19.1489 24.3394 19.2916 23.9897 19.2916 23.625V7.125C19.2916 6.76033 19.1489 6.41059 18.895 6.15273C18.641 5.89487 18.2966 5.75 17.9374 5.75H16.3509C16.1508 6.32462 15.8259 6.85263 15.3934 7.29182C14.6315 8.0654 13.5982 8.5 12.5208 8.5H9.81242C8.73498 8.5 7.70166 8.0654 6.9398 7.29182C6.50727 6.85263 6.18235 6.32462 5.98225 5.75ZM5.74992 16.75C5.74992 15.9906 6.3562 15.375 7.10408 15.375H7.11763C7.86551 15.375 8.47179 15.9906 8.47179 16.75C8.47179 17.5094 7.86551 18.125 7.11763 18.125H7.10408C6.3562 18.125 5.74992 17.5094 5.74992 16.75ZM17.5408 17.7223L13.4783 21.8473C12.9495 22.3842 12.092 22.3842 11.5632 21.8473L10.209 20.4723C9.68021 19.9353 9.68021 19.0647 10.209 18.5277C10.7379 17.9908 11.5953 17.9908 12.1241 18.5277L12.5208 18.9305L15.6257 15.7777C16.1545 15.2408 17.012 15.2408 17.5408 15.7777C18.0696 16.3147 18.0696 17.1853 17.5408 17.7223ZM5.74992 20.875C5.74992 20.1156 6.3562 19.5 7.10408 19.5H7.11763C7.86551 19.5 8.47179 20.1156 8.47179 20.875C8.47179 21.6344 7.86551 22.25 7.11763 22.25H7.10408C6.3562 22.25 5.74992 21.6344 5.74992 20.875Z" fill="#351238"/>
</svg>
