<svg width="24" height="24" viewBox="0 0 24 24" fill="none" xmlns="http://www.w3.org/2000/svg">
<path fill-rule="evenodd" clip-rule="evenodd" d="M6.32759 8.34736L6.93059 15.5194C6.97459 16.0714 7.42559 16.4854 7.97659 16.4854H7.98059H18.8916H18.8936C19.4146 16.4854 19.8596 16.0974 19.9336 15.5824L20.8836 9.02337C20.9056 8.86736 20.8666 8.71136 20.7716 8.58536C20.6776 8.45836 20.5396 8.37636 20.3836 8.35436C20.1746 8.36236 11.5016 8.35036 6.32759 8.34736ZM7.97459 17.9854C6.65759 17.9854 5.54259 16.9574 5.43559 15.6424L4.51959 4.74836L3.01259 4.48836C2.60359 4.41636 2.33059 4.02936 2.40059 3.62036C2.47259 3.21136 2.86759 2.94536 3.26759 3.00936L5.34759 3.36936C5.68259 3.42836 5.93759 3.70636 5.96659 4.04637L6.20159 6.84736C20.4776 6.85336 20.5236 6.86037 20.5926 6.86837C21.1496 6.94937 21.6396 7.24037 21.9736 7.68836C22.3076 8.13537 22.4476 8.68637 22.3676 9.23837L21.4186 15.7964C21.2396 17.0444 20.1556 17.9854 18.8956 17.9854H18.8906H7.98259H7.97459Z" fill="#64748B"/>
<path fill-rule="evenodd" clip-rule="evenodd" d="M17.2876 12.0437H14.5156C14.1006 12.0437 13.7656 11.7077 13.7656 11.2937C13.7656 10.8797 14.1006 10.5437 14.5156 10.5437H17.2876C17.7016 10.5437 18.0376 10.8797 18.0376 11.2937C18.0376 11.7077 17.7016 12.0437 17.2876 12.0437Z" fill="#64748B"/>
<path fill-rule="evenodd" clip-rule="evenodd" d="M7.54402 20.7019C7.84502 20.7019 8.08802 20.9449 8.08802 21.2459C8.08802 21.5469 7.84502 21.7909 7.54402 21.7909C7.24202 21.7909 6.99902 21.5469 6.99902 21.2459C6.99902 20.9449 7.24202 20.7019 7.54402 20.7019Z" fill="#64748B"/>
<mask id="mask0_329_486" style="mask-type:luminance" maskUnits="userSpaceOnUse" x="6" y="20" width="3" height="2">
<path fill-rule="evenodd" clip-rule="evenodd" d="M6.99902 21.2454C6.99902 21.5474 7.24202 21.7914 7.54502 21.7914C7.84602 21.7914 8.08902 21.5474 8.08902 21.2454C8.08902 20.9444 7.84602 20.7014 7.54502 20.7014C7.24202 20.7014 6.99902 20.9444 6.99902 21.2454Z" fill="white"/>
</mask>
<g mask="url(#mask0_329_486)">
<path fill-rule="evenodd" clip-rule="evenodd" d="M2 26.7904H13.089V15.7014H2V26.7904Z" fill="#64748B"/>
</g>
<path fill-rule="evenodd" clip-rule="evenodd" d="M7.54302 21.0408C7.43002 21.0408 7.33802 21.1328 7.33802 21.2458C7.33802 21.4728 7.74902 21.4728 7.74902 21.2458C7.74902 21.1328 7.65602 21.0408 7.54302 21.0408ZM7.54302 22.5408C6.82902 22.5408 6.24902 21.9598 6.24902 21.2458C6.24902 20.5318 6.82902 19.9518 7.54302 19.9518C8.25702 19.9518 8.83802 20.5318 8.83802 21.2458C8.83802 21.9598 8.25702 22.5408 7.54302 22.5408Z" fill="#64748B"/>
<path fill-rule="evenodd" clip-rule="evenodd" d="M18.8243 20.7019C19.1253 20.7019 19.3693 20.9449 19.3693 21.2459C19.3693 21.5469 19.1253 21.7909 18.8243 21.7909C18.5223 21.7909 18.2793 21.5469 18.2793 21.2459C18.2793 20.9449 18.5223 20.7019 18.8243 20.7019Z" fill="#64748B"/>
<mask id="mask1_329_486" style="mask-type:luminance" maskUnits="userSpaceOnUse" x="18" y="20" width="2" height="2">
<path fill-rule="evenodd" clip-rule="evenodd" d="M18.2803 21.2454C18.2803 21.5474 18.5233 21.7914 18.8253 21.7914C19.1253 21.7914 19.3703 21.5474 19.3703 21.2454C19.3703 20.9444 19.1253 20.7014 18.8253 20.7014C18.5233 20.7014 18.2803 20.9444 18.2803 21.2454Z" fill="white"/>
</mask>
<g mask="url(#mask1_329_486)">
<path fill-rule="evenodd" clip-rule="evenodd" d="M13.2803 26.7904H24.3703V15.7014H13.2803V26.7904Z" fill="#64748B"/>
</g>
<path fill-rule="evenodd" clip-rule="evenodd" d="M18.8233 21.0408C18.7113 21.0408 18.6193 21.1328 18.6193 21.2458C18.6203 21.4748 19.0303 21.4728 19.0293 21.2458C19.0293 21.1328 18.9363 21.0408 18.8233 21.0408ZM18.8233 22.5408C18.1093 22.5408 17.5293 21.9598 17.5293 21.2458C17.5293 20.5318 18.1093 19.9518 18.8233 19.9518C19.5383 19.9518 20.1193 20.5318 20.1193 21.2458C20.1193 21.9598 19.5383 22.5408 18.8233 22.5408Z" fill="#64748B"/>
</svg>
