<svg width="29" height="30" viewBox="0 0 29 30" fill="none" xmlns="http://www.w3.org/2000/svg">
<path fill-rule="evenodd" clip-rule="evenodd" d="M6.43099 1.1982C7.17261 0.431005 8.17846 0 9.22727 0H19.7727C20.8215 0 21.8274 0.431005 22.569 1.1982C23.3106 1.96539 23.7273 3.00593 23.7273 4.09091V13.6364H25.0455C26.0943 13.6364 27.1001 14.0674 27.8417 14.8346C28.5834 15.6018 29 16.6423 29 17.7273V25.9091C29 26.9941 28.5834 28.0346 27.8417 28.8018C27.1001 29.569 26.0943 30 25.0455 30H3.95455C2.90573 30 1.89988 29.569 1.15826 28.8018C0.416638 28.0346 0 26.9941 0 25.9091V13.6364C0 12.5514 0.416638 11.5108 1.15826 10.7437C1.89988 9.97646 2.90573 9.54545 3.95455 9.54545H5.27273V4.09091C5.27273 3.00593 5.68937 1.96539 6.43099 1.1982ZM5.27273 12.2727H3.95455C3.60494 12.2727 3.26966 12.4164 3.02245 12.6721C2.77524 12.9279 2.63636 13.2747 2.63636 13.6364V25.9091C2.63636 26.2708 2.77524 26.6176 3.02245 26.8733C3.26966 27.1291 3.60494 27.2727 3.95455 27.2727H5.27273V12.2727ZM7.90909 27.2727V4.09091C7.90909 3.72925 8.04797 3.3824 8.29518 3.12667C8.54238 2.87094 8.87767 2.72727 9.22727 2.72727H19.7727C20.1223 2.72727 20.4576 2.87094 20.7048 3.12667C20.952 3.3824 21.0909 3.72925 21.0909 4.09091V27.2727H7.90909ZM23.7273 27.2727H25.0455C25.3951 27.2727 25.7303 27.1291 25.9775 26.8733C26.2248 26.6176 26.3636 26.2707 26.3636 25.9091V17.7273C26.3636 17.3656 26.2248 17.0188 25.9775 16.763C25.7303 16.5073 25.3951 16.3636 25.0455 16.3636H23.7273V27.2727ZM14.5 5.45455C15.228 5.45455 15.8182 6.06507 15.8182 6.81818V8.18182H17.1364C17.8644 8.18182 18.4545 8.79234 18.4545 9.54545C18.4545 10.2986 17.8644 10.9091 17.1364 10.9091H15.8182V12.2727C15.8182 13.0258 15.228 13.6364 14.5 13.6364C13.772 13.6364 13.1818 13.0258 13.1818 12.2727V10.9091H11.8636C11.1356 10.9091 10.5455 10.2986 10.5455 9.54545C10.5455 8.79234 11.1356 8.18182 11.8636 8.18182H13.1818V6.81818C13.1818 6.06507 13.772 5.45455 14.5 5.45455ZM10.5455 17.7273C10.5455 16.9742 11.1356 16.3636 11.8636 16.3636H17.1364C17.8644 16.3636 18.4545 16.9742 18.4545 17.7273C18.4545 18.4804 17.8644 19.0909 17.1364 19.0909H11.8636C11.1356 19.0909 10.5455 18.4804 10.5455 17.7273ZM10.5455 23.1818C10.5455 22.4287 11.1356 21.8182 11.8636 21.8182H17.1364C17.8644 21.8182 18.4545 22.4287 18.4545 23.1818C18.4545 23.9349 17.8644 24.5455 17.1364 24.5455H11.8636C11.1356 24.5455 10.5455 23.9349 10.5455 23.1818Z" fill="#44475C"/>
</svg>
