<svg width="40" height="40" viewBox="0 0 40 40" fill="none" xmlns="http://www.w3.org/2000/svg">
<path fill-rule="evenodd" clip-rule="evenodd" d="M11 18.106C11 15.866 11 14.746 11.436 13.89C11.8195 13.1374 12.4314 12.5255 13.184 12.142C14.04 11.706 15.16 11.706 17.4 11.706H22.6C24.84 11.706 25.96 11.706 26.816 12.142C27.5686 12.5255 28.1805 13.1374 28.564 13.89C29 14.746 29 15.866 29 18.106V19.306C29 21.546 29 22.666 28.564 23.522C28.1805 24.2746 27.5686 24.8865 26.816 25.27C25.96 25.706 24.84 25.706 22.6 25.706H15.414C15.1488 25.706 14.8945 25.8114 14.707 25.999L12.707 27.999C12.077 28.629 11 28.183 11 27.292V20.706V18.106ZM17 15.706C16.7348 15.706 16.4804 15.8114 16.2929 15.9989C16.1054 16.1864 16 16.4408 16 16.706C16 16.9712 16.1054 17.2256 16.2929 17.4131C16.4804 17.6006 16.7348 17.706 17 17.706H23C23.2652 17.706 23.5196 17.6006 23.7071 17.4131C23.8946 17.2256 24 16.9712 24 16.706C24 16.4408 23.8946 16.1864 23.7071 15.9989C23.5196 15.8114 23.2652 15.706 23 15.706H17ZM17 19.706C16.7348 19.706 16.4804 19.8114 16.2929 19.9989C16.1054 20.1864 16 20.4408 16 20.706C16 20.9712 16.1054 21.2256 16.2929 21.4131C16.4804 21.6006 16.7348 21.706 17 21.706H20C20.2652 21.706 20.5196 21.6006 20.7071 21.4131C20.8946 21.2256 21 20.9712 21 20.706C21 20.4408 20.8946 20.1864 20.7071 19.9989C20.5196 19.8114 20.2652 19.706 20 19.706H17Z" fill="#64748B"/>
</svg>
