<svg width="24" height="24" viewBox="0 0 24 24" fill="none" xmlns="http://www.w3.org/2000/svg">
<g clip-path="url(#clip0_439_5474)">
<path d="M17.0001 14C17.0001 14.2652 16.8948 14.5195 16.7072 14.7071C16.5197 14.8946 16.2653 15 16.0001 15H8.00012C7.73491 15 7.48055 14.8946 7.29302 14.7071C7.10548 14.5195 7.00012 14.2652 7.00012 14C7.00012 13.7347 7.10548 13.4804 7.29302 13.2929C7.48055 13.1053 7.73491 13 8.00012 13H16.0001C16.2653 13 16.5197 13.1053 16.7072 13.2929C16.8948 13.4804 17.0001 13.7347 17.0001 14ZM13.0001 17H8.00012C7.73491 17 7.48055 17.1053 7.29302 17.2929C7.10548 17.4804 7.00012 17.7347 7.00012 18C7.00012 18.2652 7.10548 18.5195 7.29302 18.7071C7.48055 18.8946 7.73491 19 8.00012 19H13.0001C13.2653 19 13.5197 18.8946 13.7072 18.7071C13.8948 18.5195 14.0001 18.2652 14.0001 18C14.0001 17.7347 13.8948 17.4804 13.7072 17.2929C13.5197 17.1053 13.2653 17 13.0001 17ZM22.0001 10.485V19C21.9985 20.3256 21.4712 21.5964 20.5339 22.5337C19.5966 23.4711 18.3257 23.9984 17.0001 24H7.00012C5.67453 23.9984 4.40368 23.4711 3.46634 22.5337C2.529 21.5964 2.00171 20.3256 2.00012 19V4.99996C2.00171 3.67437 2.529 2.40352 3.46634 1.46618C4.40368 0.528844 5.67453 0.00154987 7.00012 -3.79865e-05H11.5151C12.4347 -0.00240491 13.3457 0.17755 14.1953 0.529421C15.045 0.881293 15.8164 1.3981 16.4651 2.04996L19.9491 5.53596C20.6014 6.1842 21.1185 6.95542 21.4705 7.80494C21.8226 8.65445 22.0026 9.56538 22.0001 10.485ZM15.0511 3.46396C14.7364 3.15912 14.3831 2.89689 14.0001 2.68396V6.99996C14.0001 7.26518 14.1055 7.51953 14.293 7.70707C14.4806 7.8946 14.7349 7.99996 15.0001 7.99996H19.3161C19.1031 7.61715 18.8405 7.26411 18.5351 6.94996L15.0511 3.46396ZM20.0001 10.485C20.0001 10.32 19.9681 10.162 19.9531 9.99996H15.0001C14.2045 9.99996 13.4414 9.68389 12.8788 9.12128C12.3162 8.55867 12.0001 7.79561 12.0001 6.99996V2.04696C11.8381 2.03196 11.6791 1.99996 11.5151 1.99996H7.00012C6.20447 1.99996 5.44141 2.31603 4.8788 2.87864C4.31619 3.44125 4.00012 4.20431 4.00012 4.99996V19C4.00012 19.7956 4.31619 20.5587 4.8788 21.1213C5.44141 21.6839 6.20447 22 7.00012 22H17.0001C17.7958 22 18.5588 21.6839 19.1214 21.1213C19.6841 20.5587 20.0001 19.7956 20.0001 19V10.485Z" fill="#6C7072"/>
</g>
<defs>
<clipPath id="clip0_439_5474">
<rect width="24" height="24" fill="white"/>
</clipPath>
</defs>
</svg>
