<svg width="37" height="44" viewBox="0 0 37 44" fill="none" xmlns="http://www.w3.org/2000/svg">
<path fill-rule="evenodd" clip-rule="evenodd" d="M14.2452 22.6471L14.3588 22.6471C14.7707 22.6471 15.1657 22.8078 15.4569 23.0938L18.5 26.0825L21.5431 23.0938C21.8343 22.8078 22.2293 22.6471 22.6412 22.6471L22.7548 22.6471C24.1265 22.647 25.3693 22.647 26.4904 22.674C26.585 22.6563 26.6826 22.6471 26.7824 22.6471C26.9152 22.6471 27.0442 22.6635 27.1673 22.6943C28.0867 22.7279 28.9175 22.7855 29.664 22.8841C31.5275 23.1303 33.0971 23.6568 34.3428 24.8813C35.5896 26.1048 36.1257 27.6463 36.3763 29.4765C36.6177 31.2397 36.6177 33.4816 36.6177 36.2623V42.4748C36.6177 43.3171 35.9224 44 35.0647 44C34.2071 44 33.5118 43.3171 33.5118 42.4748V36.374C33.5118 33.4553 33.5085 31.4193 33.2981 29.8831C33.0938 28.3907 32.72 27.6009 32.1472 27.0389C31.575 26.4763 30.7696 26.108 29.2501 25.9073C28.9631 25.8694 28.659 25.8384 28.3353 25.8129V35.3571C28.3353 36.1995 27.64 36.8824 26.7824 36.8824C25.9247 36.8824 25.2294 36.1995 25.2294 35.3571V25.705C24.6299 25.6995 23.9834 25.698 23.2843 25.6976L19.5981 29.318C18.9917 29.9136 18.0084 29.9136 17.4019 29.318L13.7157 25.6976C11.0841 25.6991 9.19871 25.716 7.74998 25.9073C6.23042 26.108 5.42625 26.4751 4.85409 27.0377C4.28128 27.5996 3.90628 28.3907 3.70192 29.8831C3.49157 31.4193 3.48827 33.4553 3.48827 36.374V42.4748C3.48827 43.3171 2.79299 44 1.93533 44C1.07766 44 0.382388 43.3171 0.382388 42.4748L0.382386 36.2624C0.382344 33.4816 0.382309 31.2397 0.62375 29.4765C0.87436 27.6463 1.41049 26.1048 2.65728 24.8813C3.903 23.6568 5.47254 23.1303 7.33601 22.8841C9.13129 22.647 11.4139 22.647 14.2452 22.6471Z" fill="#002A4C"/>
<path fill-rule="evenodd" clip-rule="evenodd" d="M15.2342 0.665566C16.3133 0.22616 17.4698 0 18.6377 0C19.8056 0 20.9621 0.22616 22.0411 0.665566C23.1201 1.10497 24.1006 1.74902 24.9264 2.56094C25.7523 3.37285 26.4074 4.33674 26.8543 5.39756C27.3013 6.45838 27.5313 7.59536 27.5313 8.74359V10.8009C27.5313 11.9491 27.3013 13.0861 26.8543 14.1469C26.4074 15.2078 25.7523 16.1716 24.9264 16.9836C24.1006 17.7955 23.1201 18.4395 22.0411 18.8789C20.9621 19.3183 19.8056 19.5445 18.6377 19.5445C17.4698 19.5445 16.3133 19.3183 15.2342 18.8789C14.1552 18.4395 13.1748 17.7955 12.3489 16.9836C11.5231 16.1716 10.868 15.2078 10.4211 14.1469C9.97411 13.0861 9.74407 11.9491 9.74407 10.8009V8.74359C9.74407 7.59536 9.97411 6.45838 10.4211 5.39756C10.868 4.33674 11.5231 3.37285 12.3489 2.56094C13.1748 1.74902 14.1552 1.10497 15.2342 0.665566ZM18.6377 3.08597C17.882 3.08597 17.1336 3.23231 16.4355 3.51663C15.7373 3.80095 15.1029 4.21769 14.5685 4.74305C14.0341 5.26841 13.6102 5.8921 13.321 6.57851C13.0318 7.26492 12.883 8.00062 12.883 8.74359V10.8009C12.883 11.5439 13.0318 12.2796 13.321 12.966C13.6102 13.6524 14.0341 14.2761 14.5685 14.8014C15.1029 15.3268 15.7373 15.7435 16.4355 16.0279C17.1336 16.3122 17.882 16.4585 18.6377 16.4585C19.3934 16.4585 20.1417 16.3122 20.8399 16.0279C21.5381 15.7435 22.1725 15.3268 22.7069 14.8014C23.2412 14.2761 23.6651 13.6524 23.9543 12.966C24.2435 12.2796 24.3924 11.5439 24.3924 10.8009V8.74359C24.3924 8.00062 24.2435 7.26492 23.9543 6.57851C23.6651 5.8921 23.2412 5.26841 22.7069 4.74305C22.1725 4.21769 21.5381 3.80095 20.8399 3.51663C20.1417 3.23231 19.3934 3.08597 18.6377 3.08597ZM11.3135 22.6305C12.1803 22.6305 12.883 23.3213 12.883 24.1734V31.0742C13.8195 31.3352 14.6821 31.828 15.3827 32.5168C16.4619 33.5778 17.0682 35.0168 17.0682 36.5173V38.5746C17.0682 39.4268 16.3655 40.1176 15.4988 40.1176C14.632 40.1176 13.9293 39.4268 13.9293 38.5746V36.5173C13.9293 35.8353 13.6537 35.1812 13.1632 34.6989C12.6726 34.2166 12.0073 33.9457 11.3135 33.9457C10.6198 33.9457 9.95445 34.2166 9.4639 34.6989C8.97335 35.1812 8.69776 35.8353 8.69776 36.5173V38.5746C8.69776 39.4268 7.99509 40.1176 7.1283 40.1176C6.26151 40.1176 5.55884 39.4268 5.55884 38.5746V36.5173C5.55884 35.0168 6.16513 33.5778 7.24435 32.5168C7.94492 31.828 8.80752 31.3352 9.74407 31.0742V24.1734C9.74407 23.3213 10.4467 22.6305 11.3135 22.6305ZM24.7886 34.8495C25.3773 34.2708 26.1756 33.9457 27.0081 33.9457C27.8406 33.9457 28.639 34.2708 29.2277 34.8495C29.8164 35.4283 30.1471 36.2132 30.1471 37.0317C30.1471 37.8501 29.8164 38.635 29.2277 39.2138C28.639 39.7925 27.8406 40.1176 27.0081 40.1176C26.1756 40.1176 25.3773 39.7925 24.7886 39.2138C24.1999 38.635 23.8692 37.8501 23.8692 37.0317C23.8692 36.2132 24.1999 35.4283 24.7886 34.8495Z" fill="#002A4C"/>
</svg>
