<svg width="25" height="25" viewBox="0 0 25 25" fill="none" xmlns="http://www.w3.org/2000/svg">
<g clip-path="url(#clip0_170_758)">
<path fill-rule="evenodd" clip-rule="evenodd" d="M10.0035 0.680736C10.7237 0.238838 11.5999 0 12.5 0C13.4003 0 14.2761 0.238924 14.9962 0.680736L22.7796 5.45633C23.4689 5.87924 24.0284 6.42765 24.4138 7.05817C24.799 7.68841 25 8.38365 25 9.08883V21.5965C25 22.4994 24.5613 23.365 23.7812 24.0031C23.0011 24.6413 21.9431 25 20.8396 25H4.16045C3.05704 25 1.99868 24.6414 1.21844 24.0031C0.438101 23.3647 0 22.499 0 21.5965V9.08883C0 8.38405 0.200456 7.68877 0.585874 7.05817C0.971241 6.42766 1.53078 5.87925 2.22007 5.45633L10.0035 0.680736ZM11.6602 2.48781L3.8768 7.2634C3.53036 7.47595 3.24918 7.75156 3.05556 8.06836C2.86198 8.38508 2.76119 8.73447 2.76119 9.08883V21.5965C2.76119 21.9002 2.90858 22.1913 3.17089 22.4058C3.43329 22.6205 3.78932 22.7412 4.16045 22.7412H20.8396C21.2105 22.7412 21.5662 22.6206 21.8288 22.4058C22.0914 22.191 22.2388 21.8998 22.2388 21.5965V9.08883C22.2388 8.73487 22.1379 8.38544 21.9441 8.06836C21.7505 7.75156 21.4693 7.47596 21.1229 7.2634L13.3395 2.48781C13.0972 2.33917 12.8027 2.25885 12.5 2.25885C12.1972 2.25885 11.9023 2.33925 11.6602 2.48781Z" fill="#44475C"/>
</g>
<defs>
<clipPath id="clip0_170_758">
<rect width="25" height="25" fill="white"/>
</clipPath>
</defs>
</svg>
