<svg width="17" height="22" viewBox="0 0 17 22" fill="none" xmlns="http://www.w3.org/2000/svg">
<path d="M6.50019 9.39555L8.28065 7.75243C8.76749 7.30227 9.10967 6.71585 9.26327 6.06841C9.41687 5.42098 9.37488 4.74209 9.1427 4.11886L8.38344 2.07665C8.09977 1.31423 7.5382 0.689427 6.81313 0.329532C6.08806 -0.0303637 5.25405 -0.0982749 4.481 0.139634C1.63623 1.0163 -0.550396 3.67969 0.122667 6.84236C0.565297 8.92298 1.41243 11.5346 3.01717 14.3132C4.62523 17.0985 6.46206 19.1558 8.03696 20.6018C10.4142 22.781 13.8127 22.2366 15.9993 20.1827C16.5851 19.632 16.9405 18.8771 16.9932 18.0718C17.0458 17.2664 16.7918 16.4711 16.2828 15.8478L14.8903 14.1446C14.4703 13.6295 13.9069 13.2528 13.2726 13.063C12.6383 12.8731 11.9621 12.8788 11.331 13.0792L9.02997 13.8089C8.4354 13.1915 7.91462 12.5061 7.47828 11.7667C7.05723 11.019 6.72875 10.2221 6.50019 9.39388" fill="#F8BAC6"/>
</svg>
