<svg width="44" height="44" viewBox="0 0 44 44" fill="none" xmlns="http://www.w3.org/2000/svg">
<path d="M38.0921 12.2845C38.249 12.3236 38.4119 12.3305 38.5713 12.3047C38.7308 12.2789 38.8837 12.221 39.0211 12.1344C39.1585 12.0477 39.2777 11.934 39.3717 11.7999C39.4658 11.6658 39.5328 11.5139 39.569 11.3531C39.6052 11.1922 39.6097 11.0257 39.5824 10.863C39.5551 10.7004 39.4964 10.5449 39.4098 10.4056C39.3233 10.2663 39.2105 10.146 39.078 10.0517C38.9456 9.9573 38.7961 9.89076 38.6383 9.85592L30.5725 7.96186C30.4144 7.91889 30.2495 7.90887 30.0875 7.93241C29.9256 7.95594 29.7699 8.01255 29.6298 8.09885C29.4897 8.18516 29.3681 8.29939 29.272 8.43476C29.176 8.57013 29.1077 8.72387 29.071 8.8868C29.0344 9.04974 29.0301 9.21856 29.0586 9.38319C29.0871 9.54783 29.1478 9.70492 29.2369 9.84511C29.326 9.9853 29.4419 10.1057 29.5775 10.1992C29.7131 10.2927 29.8657 10.3573 30.0263 10.3892L38.0921 12.2845Z" fill="#002A4C"/>
<path fill-rule="evenodd" clip-rule="evenodd" d="M34.2225 19.5594C36.8157 19.5594 39.3026 18.529 41.1362 16.695C42.9699 14.8609 44 12.3734 44 9.77968C44 7.18595 42.9699 4.69845 41.1362 2.8644C39.3026 1.03036 36.8157 0 34.2225 0C31.6293 0 29.1424 1.03036 27.3088 2.8644C25.4751 4.69845 24.445 7.18595 24.445 9.77968C24.445 12.3734 25.4751 14.8609 27.3088 16.695C29.1424 18.529 31.6293 19.5594 34.2225 19.5594ZM34.2225 17.1144C35.1855 17.1144 36.1391 16.9247 37.0288 16.5561C37.9185 16.1875 38.7269 15.6472 39.4078 14.9661C40.0888 14.285 40.6289 13.4765 40.9974 12.5866C41.366 11.6967 41.5556 10.7429 41.5556 9.77968C41.5556 8.81646 41.366 7.86268 40.9974 6.97279C40.6289 6.08289 40.0888 5.27432 39.4078 4.59322C38.7269 3.91213 37.9185 3.37185 37.0288 3.00325C36.1391 2.63464 35.1855 2.44492 34.2225 2.44492C32.2776 2.44492 30.4124 3.21769 29.0372 4.59322C27.662 5.96875 26.8894 7.83438 26.8894 9.77968C26.8894 11.725 27.662 13.5906 29.0372 14.9661C30.4124 16.3417 32.2776 17.1144 34.2225 17.1144ZM13.174 3.96688C12.3832 2.09407 9.73598 1.90582 8.6739 3.64538L0.358136 17.255C-0.601281 18.8247 0.470578 20.8295 2.34175 20.9627L16.8442 21.9969C18.7142 22.1314 20.0757 20.3002 19.3619 18.6107L13.174 3.96688ZM10.7699 4.90573L10.759 4.9204L2.45785 18.508L2.4603 18.5105L2.47252 18.5154C2.48653 18.5209 2.50145 18.5238 2.51652 18.5239L17.0202 19.5581H17.0667C17.0794 19.554 17.0914 19.5478 17.1021 19.5398L10.9227 4.91918L10.9178 4.90695C10.8979 4.8951 10.875 4.88917 10.8518 4.88984C10.8261 4.88727 10.8 4.89105 10.7761 4.90084L10.7724 4.90206L10.7699 4.90573ZM35.9152 37.1139C37.6779 36.2918 39.0419 34.8031 39.7072 32.9751C40.3725 31.1471 40.2845 29.1297 39.4626 27.3666C38.6408 25.6035 37.1523 24.2392 35.3248 23.5738C33.4972 22.9084 31.4802 22.9964 29.7175 23.8184L16.425 30.0163C14.6622 30.8383 13.298 32.3272 12.6326 34.1552C11.9672 35.9833 12.0551 38.0009 12.877 39.7642C13.6989 41.5274 15.1874 42.8919 17.015 43.5574C18.8427 44.223 20.8599 44.135 22.6227 43.313L35.9152 37.1139ZM17.4578 32.2338C16.8695 32.5011 16.3401 32.8824 15.9001 33.3556C15.46 33.8288 15.1182 34.3845 14.8942 34.9907C14.6702 35.5968 14.5686 36.2414 14.5952 36.8871C14.6218 37.5328 14.7761 38.1668 15.0491 38.7525C15.3222 39.3382 15.7086 39.8639 16.1861 40.2993C16.6635 40.7347 17.2225 41.0711 17.8307 41.2891C18.439 41.507 19.0844 41.6023 19.7296 41.5693C20.3749 41.5362 21.0072 41.3756 21.59 41.0967L27.0483 38.5503L22.9173 29.6874L17.4578 32.2338ZM29.2641 37.5173L25.1319 28.6545L30.7503 26.0335C31.3335 25.7513 31.967 25.5879 32.6139 25.5527C33.2609 25.5176 33.9083 25.6114 34.5187 25.8287C35.1291 26.046 35.6901 26.3825 36.1693 26.8187C36.6485 27.2548 37.0363 27.7819 37.31 28.3692C37.5838 28.9565 37.7381 29.5924 37.764 30.2399C37.7899 30.8875 37.6869 31.5337 37.4609 32.141C37.2349 32.7483 36.8904 33.3047 36.4476 33.7777C36.0048 34.2507 35.4723 34.6309 34.8813 34.8963L29.2641 37.5173Z" fill="#002A4C"/>
</svg>
