<svg width="40" height="40" viewBox="0 0 40 40" fill="none" xmlns="http://www.w3.org/2000/svg">
<path fill-rule="evenodd" clip-rule="evenodd" d="M14.593 15.694C14.593 15.3089 14.9056 14.9964 15.2907 14.9964L21.6721 14.9964C22.0572 14.9964 22.3698 15.3089 22.3698 15.694C22.3698 16.0792 22.0572 16.3917 21.6721 16.3917L15.2907 16.3917C14.9056 16.3917 14.593 16.0792 14.593 15.694Z" fill="#64748B"/>
<path fill-rule="evenodd" clip-rule="evenodd" d="M14.594 20.0354C14.594 19.6503 14.9065 19.3378 15.2916 19.3378H24.727C25.1121 19.3378 25.4247 19.6503 25.4247 20.0354C25.4247 20.4206 25.1121 20.7331 24.727 20.7331H15.2916C14.9065 20.7331 14.594 20.4206 14.594 20.0354Z" fill="#64748B"/>
<path fill-rule="evenodd" clip-rule="evenodd" d="M14.594 24.3055C14.594 23.9204 14.9065 23.6078 15.2916 23.6078H18.3C18.6851 23.6078 18.9977 23.9204 18.9977 24.3055C18.9977 24.6906 18.6851 25.0032 18.3 25.0032L15.2916 25.0032C14.9065 25.0032 14.594 24.6906 14.594 24.3055Z" fill="#64748B"/>
<path fill-rule="evenodd" clip-rule="evenodd" d="M28.6047 15.6409C28.6047 13.0623 26.84 11.3953 24.107 11.3953L15.893 11.3953C13.16 11.3953 11.3953 13.0623 11.3953 15.6409L11.3953 24.3591C11.3953 26.9386 13.16 28.6047 15.893 28.6047H24.107C26.84 28.6047 28.6047 26.9386 28.6047 24.3591V15.6409ZM10 24.3591L10 15.6409C10 12.267 12.3684 10 15.893 10L24.107 10C27.6316 10 30 12.267 30 15.6409V24.3591C30 27.733 27.6316 30 24.107 30H15.893C12.3684 30 10 27.733 10 24.3591Z" fill="#64748B"/>
</svg>
