<svg width="40" height="44" viewBox="0 0 40 44" fill="none" xmlns="http://www.w3.org/2000/svg">
<path d="M28.6762 40.784L31.8617 37.5619L26.6937 32.4036L23.4677 35.5832C22.7253 36.3257 22.354 37.1928 22.354 38.1847C22.354 39.1765 22.7253 40.043 23.4677 40.784C24.2101 41.5251 25.0782 41.8956 26.0719 41.8956C27.0656 41.8956 27.9337 41.5251 28.6762 40.784ZM33.3288 36.0997L36.5548 32.9201C37.2973 32.1791 37.6621 31.3126 37.6493 30.3208C37.6366 29.3289 37.2582 28.4618 36.5144 27.7193C35.7719 27.0066 34.911 26.6431 33.9314 26.629C32.9519 26.6148 32.0903 26.9782 31.3464 27.7193L28.1608 30.9414L33.3288 36.0997ZM30.1561 42.2994C29.0062 43.4471 27.6384 44.0139 26.0528 43.9997C24.4657 43.9856 23.0979 43.4188 21.9495 42.2994C20.8266 41.1517 20.2587 39.7865 20.246 38.2038C20.2332 36.6211 20.801 35.2559 21.9495 34.1082L29.8686 26.2018C30.9901 25.0824 32.3578 24.5227 33.9719 24.5227C35.5846 24.5227 36.9523 25.0824 38.0752 26.2018C39.2251 27.3495 39.8 28.7154 39.8 30.2995C39.8 31.8836 39.2251 33.2488 38.0752 34.3951L30.1561 42.2994ZM3.64108 38.2569C2.68712 38.2569 1.87512 37.9226 1.20508 37.2538C0.535034 36.585 0.200012 35.7752 0.200012 34.8245V7.68327C0.200012 6.73393 0.535034 5.92416 1.20508 5.25395C1.87512 4.58517 2.68712 4.25077 3.64108 4.25077H13.6491C13.4547 3.16541 13.7144 2.18561 14.4285 1.31136C15.1411 0.437121 16.0766 0 17.235 0C18.4204 0 19.3701 0.437121 20.0841 1.31136C20.7982 2.18561 21.0445 3.16541 20.823 4.25077H30.8311C31.7822 4.25077 32.5935 4.58517 33.265 5.25395C33.935 5.92274 34.27 6.73322 34.27 7.6854V18.6991C33.9151 18.6581 33.5602 18.651 33.2053 18.6779C32.8504 18.7048 32.4955 18.7445 32.1406 18.7969V7.6854C32.1406 7.30283 32.0179 6.98898 31.7723 6.74385C31.5267 6.49872 31.2129 6.37616 30.8311 6.37616H3.63895C3.25709 6.37616 2.94336 6.49872 2.69777 6.74385C2.45218 6.98898 2.32939 7.30283 2.32939 7.6854V34.8245C2.32939 35.2056 2.45218 35.5187 2.69777 35.7639C2.94336 36.009 3.2578 36.1316 3.64108 36.1316H14.569C14.4895 36.4858 14.4363 36.84 14.4093 37.1943C14.3824 37.5485 14.3895 37.9027 14.4306 38.2569H3.64108ZM17.235 5.19019C17.6964 5.19019 18.0783 5.04 18.3806 4.73961C18.683 4.43922 18.8335 4.05807 18.8321 3.59615C18.8306 3.13424 18.6794 2.75379 18.3785 2.45482C18.0775 2.15585 17.6964 2.00495 17.235 2.00211C16.7737 1.99928 16.3925 2.15018 16.0915 2.45482C15.7906 2.75946 15.6394 3.1399 15.638 3.59615C15.6366 4.0524 15.7878 4.43356 16.0915 4.73961C16.3953 5.04567 16.7765 5.19586 17.235 5.19019ZM7.65283 14.306V12.1806H26.8172V14.306H7.65283ZM7.65283 22.3166V20.1912H26.8172V21.0583C26.6156 21.2085 26.4297 21.3573 26.2593 21.5047C26.089 21.652 25.9023 21.827 25.6993 22.0296L25.4139 22.3166H7.65283ZM7.65283 30.3293V28.2039H19.5156L18.913 28.8032C18.6574 29.0583 18.4069 29.3126 18.1613 29.5662C17.9171 29.817 17.6793 30.0707 17.448 30.3271L7.65283 30.3293Z" fill="#002A4C"/>
</svg>
