<svg width="25" height="25" viewBox="0 0 25 25" fill="none" xmlns="http://www.w3.org/2000/svg">
<g clip-path="url(#clip0_170_762)">
<path fill-rule="evenodd" clip-rule="evenodd" d="M11.9921 0.119969C12.312 -0.0399897 12.6885 -0.0399897 13.0084 0.119969L24.3721 5.80179C24.7571 5.99428 25.0002 6.38776 25.0002 6.81818V18.1818C25.0002 18.6122 24.7571 19.0057 24.3721 19.1982L13.0084 24.88C12.6885 25.04 12.312 25.04 11.9921 24.88L0.628415 19.1982C0.243433 19.0057 0.000248986 18.6122 0.000248986 18.1818V6.81818C0.000248986 6.38776 0.243433 5.99428 0.628415 5.80179L11.9921 0.119969ZM2.27298 7.52049V17.4795L12.5002 22.5931L22.7275 17.4795V7.52049L12.5002 2.40686L2.27298 7.52049Z" fill="#44475C"/>
<path fill-rule="evenodd" clip-rule="evenodd" d="M0.120218 6.30998C0.400888 5.74864 1.08347 5.52112 1.64481 5.80179L13.0084 11.4836C13.5698 11.7643 13.7973 12.4469 13.5166 13.0082C13.236 13.5695 12.5534 13.7971 11.9921 13.5164L0.628415 7.83458C0.0670761 7.55391 -0.160452 6.87132 0.120218 6.30998Z" fill="#44475C"/>
<path fill-rule="evenodd" clip-rule="evenodd" d="M12.5002 11.3636C13.1278 11.3636 13.6366 11.8724 13.6366 12.5V23.8636C13.6366 24.4912 13.1278 25 12.5002 25C11.8727 25 11.3639 24.4912 11.3639 23.8636V12.5C11.3639 11.8724 11.8727 11.3636 12.5002 11.3636Z" fill="#44475C"/>
<path fill-rule="evenodd" clip-rule="evenodd" d="M24.8803 6.30998C25.161 6.87132 24.9334 7.55391 24.3721 7.83458L13.0084 13.5164C12.4471 13.7971 11.7645 13.5695 11.4839 13.0082C11.2032 12.4469 11.4307 11.7643 11.9921 11.4836L23.3557 5.80179C23.917 5.52112 24.5996 5.74864 24.8803 6.30998Z" fill="#44475C"/>
<path fill-rule="evenodd" clip-rule="evenodd" d="M19.1985 3.46908C19.4791 4.03041 19.2516 4.713 18.6903 4.99367L7.32663 10.6755C6.76529 10.9562 6.08271 10.7286 5.80204 10.1673C5.52137 9.60595 5.74889 8.92337 6.31023 8.6427L17.6739 2.96088C18.2352 2.68021 18.9178 2.90774 19.1985 3.46908Z" fill="#44475C"/>
</g>
<defs>
<clipPath id="clip0_170_762">
<rect width="25" height="25" fill="white"/>
</clipPath>
</defs>
</svg>
