<svg width="21" height="20" viewBox="0 0 21 20" fill="none" xmlns="http://www.w3.org/2000/svg">
<path fill-rule="evenodd" clip-rule="evenodd" d="M7.00232 8.49854C6.65732 8.49854 6.37732 8.21854 6.37732 7.87354V6.08437C6.38815 3.63604 8.36815 1.66687 10.7957 1.66687H10.8123C12.6923 1.66687 14.3707 2.86104 14.9865 4.63937C15.0998 4.9652 14.9265 5.32104 14.5998 5.43437C14.274 5.54854 13.9182 5.37437 13.8048 5.0477C13.364 3.77354 12.1598 2.91687 10.8098 2.91687H10.7982C9.05482 2.91687 7.63482 4.32854 7.62732 6.0702V7.87354C7.62732 8.21854 7.34732 8.49854 7.00232 8.49854" fill="white"/>
<path fill-rule="evenodd" clip-rule="evenodd" d="M7.61837 8.43909C6.22004 8.43909 5.08337 9.57659 5.08337 10.9749V14.5483C5.08337 15.9466 6.22004 17.0841 7.61837 17.0841H13.9867C15.3842 17.0841 16.5217 15.9466 16.5217 14.5483V10.9749C16.5217 9.57659 15.3842 8.43909 13.9867 8.43909H7.61837ZM13.9867 18.3341H7.61837C5.53087 18.3341 3.83337 16.6358 3.83337 14.5483V10.9749C3.83337 8.88742 5.53087 7.18909 7.61837 7.18909H13.9867C16.0734 7.18909 17.7717 8.88742 17.7717 10.9749V14.5483C17.7717 16.6358 16.0734 18.3341 13.9867 18.3341V18.3341Z" fill="white"/>
<path fill-rule="evenodd" clip-rule="evenodd" d="M10.8027 14.3122C10.4577 14.3122 10.1777 14.0322 10.1777 13.6872V11.8356C10.1777 11.4906 10.4577 11.2106 10.8027 11.2106C11.1477 11.2106 11.4277 11.4906 11.4277 11.8356V13.6872C11.4277 14.0322 11.1477 14.3122 10.8027 14.3122" fill="white"/>
</svg>
