<svg width="18" height="11" viewBox="0 0 18 11" fill="none" xmlns="http://www.w3.org/2000/svg">
<path fill-rule="evenodd" clip-rule="evenodd" d="M2.45455 1.57143C2.00268 1.57143 1.63636 1.9232 1.63636 2.35714V8.64286C1.63636 9.0768 2.00268 9.42857 2.45455 9.42857H10.6364C11.0882 9.42857 11.4545 9.07679 11.4545 8.64286V6.29646C11.4544 6.28882 11.4544 6.28117 11.4545 6.27352V4.33633C11.4544 4.32688 11.4544 4.31743 11.4545 4.308V2.35714C11.4545 1.9232 11.0882 1.57143 10.6364 1.57143H2.45455ZM13.0909 2.95332V2.35714C13.0909 1.05533 11.992 0 10.6364 0H2.45455C1.09894 0 0 1.05533 0 2.35714V8.64286C0 9.94467 1.09894 11 2.45455 11H10.6364C11.992 11 13.0909 9.94467 13.0909 8.64286V7.75383L16.0922 9.67533C16.2771 9.79343 16.4923 9.86155 16.7141 9.87174C16.9358 9.88192 17.1563 9.83416 17.352 9.73354C17.5477 9.63292 17.7113 9.4832 17.8254 9.30033C17.9396 9.11747 17.9999 8.9083 18 8.69512V2.25523C18 2.04794 17.9431 1.84407 17.835 1.66464C17.7269 1.48515 17.5713 1.33623 17.3841 1.23294C17.1968 1.12964 16.9845 1.07562 16.7686 1.07632C16.5526 1.07702 16.3407 1.13243 16.1542 1.23695L13.0909 2.95332ZM13.0909 4.77267V5.86521L16.3636 7.96045V2.93894L13.0909 4.77267Z" fill="white"/>
</svg>
