<svg width="40" height="40" viewBox="0 0 40 40" fill="none" xmlns="http://www.w3.org/2000/svg">
<path fill-rule="evenodd" clip-rule="evenodd" d="M28.77 20C28.77 19.641 28.576 19.406 28.188 18.934C26.768 17.21 23.636 14 20 14C16.364 14 13.232 17.21 11.812 18.934C11.424 19.406 11.23 19.641 11.23 20C11.23 20.359 11.424 20.594 11.812 21.066C13.232 22.79 16.364 26 20 26C23.636 26 26.768 22.79 28.188 21.066C28.576 20.594 28.77 20.359 28.77 20ZM20 23C20.7956 23 21.5587 22.6839 22.1213 22.1213C22.6839 21.5587 23 20.7956 23 20C23 19.2044 22.6839 18.4413 22.1213 17.8787C21.5587 17.3161 20.7956 17 20 17C19.2043 17 18.4413 17.3161 17.8787 17.8787C17.3161 18.4413 17 19.2044 17 20C17 20.7956 17.3161 21.5587 17.8787 22.1213C18.4413 22.6839 19.2043 23 20 23Z" fill="#64748B"/>
</svg>
